#format: frame checksums
#version: 2
#hash: MD5
#tb 0: 1001/30000
#media_type 0: video
#codec_id 0: rawvideo
#dimensions 0: 10x8
#sar 0: 1/1
#stream#, dts,        pts, duration,     size, hash
0,          0,          0,        1,      120, e1e66a88615da98523ef887f1463fc42
0,          1,          1,        1,      120, 549842fa98c8faf572882d38b0aae390
0,          2,          2,        1,      120, 17ee85785517705fdc78c6122a4b2548
0,          3,          3,        1,      120, 1143391d419dac30a6c11f366157c974
0,          4,          4,        1,      120, b62d2a962c4c36809ef75a610106715c
0,          5,          5,        1,      120, e6f143ca33fbc0e776bb149950cdedff
0,          6,          6,        1,      120, 01716a1077ec66df00474fd4510d2789
0,          7,          7,        1,      120, 8cb5b6a865fa2cbb15f0d7736fda88a6
0,          8,          8,        1,      120, 0fb9fd883e895a540fe1704dddbbab04
0,          9,          9,        1,      120, 150a3b99aa24ef102c92f87c8adb4386
